<?xml version="1.0" encoding="utf-8"?>
<!-- Generator: Adobe Illustrator 25.2.1, SVG Export Plug-In . SVG Version: 6.00 Build 0)  -->
<svg version="1.1" id="Capa_1" xmlns="http://www.w3.org/2000/svg" xmlns:xlink="http://www.w3.org/1999/xlink" x="0px" y="0px"
	 viewBox="0 0 3029.6 1240.6" style="enable-background:new 0 0 3029.6 1240.6;" xml:space="preserve">
<style type="text/css">
	.st0{fill:url(#SVGID_1_);}
	.st1{fill:#304C1C;}
	.st2{fill:#FFFFFF;}
	.st3{fill:#B59B00;}
	.st4{fill:#99BF1A;}
</style>
<g id="Capa_2_1_">
	<g id="Capa_1-2">
		
			<linearGradient id="SVGID_1_" gradientUnits="userSpaceOnUse" x1="122.93" y1="1091.6901" x2="626.1" y2="1091.6901" gradientTransform="matrix(1 0 0 -1 0 1240.5)">
			<stop  offset="0" style="stop-color:#292929"/>
			<stop  offset="0.11" style="stop-color:#F3F3F3"/>
			<stop  offset="0.24" style="stop-color:#A5A5A4"/>
			<stop  offset="0.38" style="stop-color:#FFFFFF"/>
			<stop  offset="0.45" style="stop-color:#000000"/>
			<stop  offset="0.63" style="stop-color:#999999"/>
			<stop  offset="0.77" style="stop-color:#5E5E5D"/>
			<stop  offset="0.84" style="stop-color:#E6E6E6"/>
			<stop  offset="0.99" style="stop-color:#666666"/>
		</linearGradient>
		<polygon class="st0" points="237.6,247.5 366.9,269.5 495.5,242.1 546.1,285.1 559.1,159.1 626.1,120.6 377.1,12.5 122.9,136.9 
			195.8,176.5 193.7,285.1 		"/>
		<path d="M241,259.5l124,21.2l2.1,0.4l2.1-0.5l123.2-26.2l46.3,39.4l16.4,13.9l2.2-21.4l12.4-120.2l62-35.6l19.5-11.2l-20.7-9
			L381.6,2.1L376.8,0l-4.7,2.3L118,126.7l-19.7,9.6l19.3,10.5l66.9,36.3l-2,101.8l-0.3,14.4l5.9,5.6l13-11.2L241,259.5z
			 M122.9,136.9L377.1,12.5l249,108.2l-67,38.5l-13,126l-50.6-43l-128.7,27.4l-129.2-22l-43.9,37.7l2.1-108.6L122.9,136.9z"/>
		<polygon class="st1" points="373.6,121.5 0,342.1 0,1130.5 377.6,1240.6 685.2,1086.7 804.6,342.5 		"/>
		<path class="st2" d="M30.6,357.4l320.9-187.5v107L148.3,395.7v197.9l161.5-94.4v107l-161.5,94.4v230l203.3-118.8v107L30.6,1106.3
			V357.4z"/>
		<path class="st2" d="M374.5,156.6l132.1,66.3l77,628.3l2.1,1.1l77-549.9l108,55.5l-113.4,699l-156.2-80L374.5,156.6z"/>
		<polygon class="st2" points="530.4,1028.9 363.9,826.4 361.4,1088.2 415.9,1028.8 442.8,1105.1 483.1,1089.4 458.5,1024.5 		"/>
		<path class="st3" d="M636.7,446.9l-9.6-21.9c5.4-4.7,5.9-12.9,1.1-18.3c-1.5-1.7-3.5-3-5.7-3.7V123c0.3-2.2-1.2-4.2-3.4-4.5
			c-2.2-0.3-4.2,1.2-4.5,3.4c0,0.4,0,0.7,0,1.1v280c-6.8,2.2-10.5,9.5-8.3,16.3c0.7,2.2,2,4.2,3.7,5.7l-9.5,21.9
			c-0.6,2.1,0.6,4.3,2.8,4.9c1.7,0.5,3.6-0.2,4.5-1.8l6.9-15.8v20c-0.3,2.2,1.2,4.2,3.4,4.5c2.2,0.3,4.2-1.2,4.5-3.4
			c0-0.4,0-0.7,0-1.1v-19.9l6.9,15.8c0.6,1.4,2.1,2.4,3.6,2.4c0.5,0,1.1-0.1,1.6-0.3C636.6,451.3,637.5,448.9,636.7,446.9z"/>
		<path class="st4" d="M1051.5,647.6c-0.6,3-2.2,5.8-4.4,7.9c-2.3,2.3-5.9,4.2-10.8,5.7c-6.1,1.7-12.3,2.8-18.7,3.3
			c-7.6,0.7-17,1.1-28.1,1.1c-11.4,0-20.7-0.4-27.9-1.1c-5.7-0.4-11.4-1.5-16.9-3.3c-4.1-1.5-6.9-3.4-8.3-5.7
			c-1.5-2.4-1.8-5.3-0.9-7.9l107.5-537c0.3-3.1,1.8-5.9,4.2-7.9c2.5-2.3,6.1-4.2,11-5.7c6-1.7,12.2-2.8,18.4-3.3
			c7.5-0.7,16.7-1.1,27.9-1.1s20.3,0.4,27.4,1.1c5.8,0.5,11.5,1.6,17.1,3.3c4.2,1.5,7,3.4,8.3,5.7c1.3,2.4,1.7,5.2,1.1,7.9
			L1051.5,647.6z"/>
		<path class="st4" d="M1614.3,111.9c0,1.8-0.2,4.8-0.7,9.2s-1.1,9.3-2,14.7s-2,11-3.5,16.9c-1.3,5.5-3.2,10.8-5.5,16
			c-1.9,4.4-4.6,8.5-7.9,12.1c-3.1,3.2-6.4,4.8-9.9,4.8h-202.7l-28.1,138.6h172c4.1,0,7,1.5,8.8,4.4c1.8,2.9,2.7,7,2.6,12.3
			c0,2-0.2,5.2-0.7,9.4s-1.1,9.1-2,14.5s-2.1,10.9-3.5,16.5c-1.4,5.3-3.2,10.4-5.5,15.4c-1.9,4.2-4.5,8.1-7.7,11.4
			c-2.9,2.9-6.1,4.4-9.7,4.4h-171.5l-32.5,160.1h205.3c3.3-0.1,6.4,1.7,7.9,4.6c1.8,3.1,2.6,7.5,2.6,13.4c0,2.1-0.1,5.3-0.4,9.7
			c-0.4,4.9-1,9.8-2,14.7c-1,5.4-2.3,10.9-3.8,16.5c-1.4,5.3-3.2,10.6-5.5,15.6c-1.8,4.3-4.5,8.2-7.7,11.6
			c-2.6,2.8-6.3,4.4-10.1,4.4h-285.1c-4.3,0.1-8.6-0.6-12.7-2c-3.7-1.2-7-3.5-9.4-6.6c-2.6-3.3-4.3-7.3-5-11.4
			c-0.9-4.5-0.7-10,0.4-16.5l99.1-494.9c2.7-12.9,7.9-22.1,15.8-27.9c7.6-5.6,16.9-8.6,26.3-8.6H1603
			C1610.6,95.2,1614.3,100.8,1614.3,111.9z"/>
		<path class="st4" d="M2001.3,138.7c0,2.3-0.2,5.7-0.7,10.1s-1.1,9.2-2,14.5s-2,10.6-3.3,16c-1.2,5.1-2.8,10.1-4.8,14.9
			c-1.6,4-3.7,7.8-6.4,11.2c-2.3,2.9-4.8,4.4-7.4,4.4c-4.1,0-9.2-1.8-15.4-5.5s-13.7-7.6-22.6-11.8c-10.2-4.7-20.6-8.7-31.4-11.8
			c-12-3.7-25.6-5.5-40.8-5.5c-15.8,0-29.2,2.2-40.1,6.6c-11,4.4-20,10.2-27,17.3c-6.8,6.9-12.1,15.1-15.6,24.1
			c-3.3,8.6-5,17.8-5.1,27c0,10.5,2.6,19.8,7.9,27.9c5.7,8.6,12.8,16.1,21,22.4c9.5,7.4,19.6,14.1,30.1,20
			c11.3,6.4,22.7,13.2,34.2,20.2c11.6,7,23,14.7,34.2,23c11.2,8.3,21.3,18,30,29c9,11.4,16.1,24.1,21.1,37.7
			c5.3,14.2,7.9,30.5,7.9,48.9c0,27.5-5.6,53-16.7,76.5c-11.2,23.6-27.2,44.6-47.2,61.4c-20.3,17.4-44.9,31.1-73.7,41
			c-28.8,9.9-60.7,14.9-95.7,14.9c-17.7,0.1-35.3-1.4-52.7-4.6c-14.5-2.6-28.8-6.4-42.8-11.2c-10.8-3.7-21.3-8.3-31.4-13.8
			c-8.5-4.8-14.8-9.4-18.9-13.8c-4.1-4.4-6.1-11-6.2-19.8c0.1-3.5,0.4-7,0.9-10.5c0.6-4.7,1.4-9.7,2.4-15.1c1-5.4,2.3-11,3.7-16.7
			c1.3-5.3,3.1-10.5,5.3-15.6c1.7-4.1,4-7.9,6.8-11.4c2.5-2.9,5.2-4.4,8.1-4.4c5,0,10.9,2.3,17.8,6.8s15.4,9.5,25.7,14.9
			c11.7,6,23.9,11.1,36.4,15.2c14,4.7,30.9,7,50.4,7c17.3,0,32.4-2.2,45.4-6.6c13-4.4,23.9-10.4,32.7-18c8.5-7.3,15.4-16.3,20-26.5
			c4.6-10.4,6.9-21.7,6.8-33.1c0-10.8-2.6-20.3-7.9-28.5c-5.7-8.6-12.7-16.2-20.8-22.6c-9.3-7.3-19.1-13.8-29.4-19.5
			c-11-6.1-22.2-12.7-33.6-19.8c-11.4-7-22.6-14.6-33.6-22.8c-11-8.2-20.9-17.9-29.4-28.8c-8.9-11.5-16-24.3-20.9-37.9
			c-5.3-14.3-7.9-31-7.9-50c0-26.3,5.3-50.6,15.8-72.8c10.4-22,25.3-41.5,43.9-57.2c18.7-15.9,41.1-28.4,67.1-37.3
			c26-8.9,54.7-13.4,86-13.4c14-0.1,27.9,1.1,41.7,3.3c12.2,2,24.2,4.7,36,8.3c9.5,2.9,18.8,6.6,27.6,11.2
			c7.6,4.1,12.9,7.5,15.8,10.3c2.7,2.5,4.9,5.4,6.4,8.8C2000.7,130.8,2001.4,134.7,2001.3,138.7z"/>
		<path class="st4" d="M2487.8,619.9c1.5,10.5,2.1,18.9,2,25c-0.1,6.2-2.2,10.7-6.1,13.8s-10.5,5-19.5,5.7s-21.5,1.1-37.3,1.1
			c-11.1,0-20.2-0.2-27.2-0.7s-12.4-1.2-16.2-2.4c-3.8-1.2-6.4-2.9-7.9-5.3c-1.5-2.3-2.3-5.6-2.6-9.7l-15.4-114.1h-213.2
			l-58.8,111.4c-1.8,3.8-4.2,7.2-7,10.3c-2.6,2.8-6.4,4.9-11.4,6.4c-6.5,1.7-13.2,2.7-20,3.1c-8.3,0.6-18.8,0.9-31.4,0.9
			c-10.5,0.1-20.9-0.3-31.4-1.3c-7.5-0.9-12.4-3-14.9-6.4c-2.5-3.4-2.8-8.1-0.9-14.2c1.9-6.1,5.6-14.3,11.2-24.6l275.5-503.6
			c2.5-4.3,5.4-8.4,8.8-12.1c2.9-3.1,7.1-5.4,12.5-7c5.4-1.6,12.7-2.6,21.9-3.1c9.2-0.4,21.3-0.7,36.2-0.7c17.3,0,30.9,0.2,41,0.7
			s17.9,1.5,23.5,3.1c5.6,1.6,9.2,4,11,7.2s2.9,7.6,3.5,13.2L2487.8,619.9z M2315.4,203.6h-0.4l-126.8,241.3h159.7L2315.4,203.6z"/>
		<path class="st4" d="M3029.6,234.3c-0.1,17.2-1.9,34.4-5.5,51.3c-7.7,37.3-24.8,72.1-49.6,101.1c-13,15.3-29,28.9-47.8,40.8
			c-18.9,11.9-40.7,21.2-65.6,28.1c-24.9,6.9-54.1,10.3-87.8,10.3h-59.2l-36.4,181.6c-0.6,3-2.2,5.8-4.4,7.9c-2.3,2.3-6,4.2-11,5.7
			c-6.2,1.7-12.5,2.8-18.9,3.3c-7.6,0.7-17,1.1-28.1,1.1c-10.8,0-19.8-0.4-27-1.1c-5.7-0.4-11.4-1.5-16.9-3.3
			c-4.1-1.5-6.9-3.3-8.3-5.5c-1.4-2.2-1.8-4.9-0.9-8.1l102.2-511.1c2.6-13.7,8.3-24.1,17.1-30.9c8.8-6.9,19.6-10.3,32.5-10.3h124.2
			c15.2,0,28.8,0.5,40.8,1.5c11.9,1,23.8,2.7,35.5,5c16.7,3.1,32.8,8.6,48,16.2c13.6,6.9,25.9,16.2,36.2,27.4
			c10.1,11.2,17.9,24.3,22.8,38.6C3027,198.8,3029.6,215.6,3029.6,234.3z M2908.1,247.4c0-14-3.4-26.1-10.1-36.4
			c-6.7-10.3-17.1-17.4-31.1-21.5c-6.7-2.2-13.6-3.6-20.6-4.2c-7.6-0.7-16.1-1.1-25.5-1.1h-50.9l-37.7,192.6h52.6
			c16.7,0,30.9-2,42.8-5.9c11.1-3.6,21.6-8.8,31.1-15.6c8.8-6.3,16.5-14,22.8-22.8c6.2-8.6,11.3-17.9,15.4-27.6
			c3.9-9.4,6.7-19.2,8.6-29.2C2907.2,266.4,2908.1,256.9,2908.1,247.4L2908.1,247.4z"/>
		<path d="M936.5,817h63v21h-39.9v38.8h31.7v21h-31.7V943h39.9v21h-63V817z"/>
		<path d="M1188.3,817h35.2c23.1,0,34.4,12.8,34.4,36.3v74.3c0,23.5-11.3,36.3-34.4,36.3h-35.2V817z M1223.1,943
			c7.3,0,11.8-3.8,11.8-14.3v-76.4c0-10.5-4.4-14.3-11.8-14.3h-11.8v105H1223.1z"/>
		<path d="M1448.3,929.1V817h23.1v113.7c0,10.5,4.4,14.3,11.8,14.3s11.8-3.8,11.8-14.3V817h22.2v112c0,23.5-11.8,36.9-34.4,36.9
			S1448.3,952.6,1448.3,929.1z"/>
		<path d="M1707.6,929.9V851c0-22.7,11.8-36.1,34-36.1s34,13.4,34,36.1v15.5h-21.8v-17c0-9.7-4.6-13.6-11.5-13.6s-11.5,4-11.5,13.6
			v82c0,9.7,4.6,13.4,11.5,13.4s11.5-3.8,11.5-13.4v-22.4h21.8v20.8c0,22.7-11.8,36.1-34,36.1S1707.6,952.6,1707.6,929.9z"/>
		<path d="M1982.9,817h31.3l23.9,146.9H2015l-4.2-29.2v0.4h-26.2l-4.2,28.8H1959L1982.9,817z M2008.1,915.2l-10.3-72.6h-0.4
			l-10.1,72.6H2008.1z"/>
		<path d="M2223,929.9V851c0-22.7,11.8-36.1,34-36.1s34,13.4,34,36.1v15.5h-21.8v-17c0-9.7-4.6-13.6-11.5-13.6s-11.5,4-11.5,13.6v82
			c0,9.7,4.6,13.4,11.5,13.4s11.5-3.8,11.5-13.4v-22.4h21.8v20.8c0,22.7-11.8,36.1-34,36.1S2223,952.6,2223,929.9z"/>
		<path d="M2480.4,817h23.1v146.9h-23.1V817z"/>
		<path d="M2694.7,929.1v-77.2c0-23.5,12.4-36.9,35-36.9s35,13.4,35,36.9v77.2c0,23.5-12.4,36.9-35,36.9S2694.7,952.6,2694.7,929.1z
			 M2731.8,783h25.2l-22.4,24.1h-17.4L2731.8,783z M2741.7,930.6v-80.2c0-10.5-4.6-14.5-12-14.5s-12,4-12,14.5v80.2
			c0,10.5,4.6,14.5,12,14.5S2741.7,941.1,2741.7,930.6z"/>
		<path d="M2955.9,817h29l22.4,88h0.4v-88h20.6v146.9h-23.7l-27.7-107.2h-0.4v107.2h-20.6L2955.9,817z"/>
		<path d="M1520.6,1068.6l-56.9,145.4c-2,5.1-6.4,8.7-11.8,9.7c-1,0.2-1.9,0.3-2.9,0.3l0,0c-1,0-1.9-0.1-2.9-0.3
			c-5.4-1-9.8-4.7-11.8-9.8l-56.8-145.3c-0.7-1.7,0.2-3.7,1.9-4.4c0.4-0.2,0.8-0.2,1.2-0.2h14.4c1.4,0,2.6,0.9,3.1,2.2l50.7,129.7
			l50.8-129.7c0.5-1.3,1.8-2.1,3.2-2.2h14.5c1.9,0,3.4,1.6,3.3,3.5C1520.8,1067.8,1520.7,1068.2,1520.6,1068.6z"/>
		<path d="M1609.1,1067.4v152.8c0,1.9-1.5,3.4-3.4,3.4c0,0,0,0,0,0h-13.5c-1.9,0-3.4-1.5-3.4-3.4v-152.8c0-1.9,1.5-3.4,3.4-3.4h13.5
			C1607.6,1064.1,1609.1,1065.6,1609.1,1067.4C1609.1,1067.4,1609.1,1067.4,1609.1,1067.4z"/>
		<path d="M1821.1,1223.6h-16.2c-1.1,0-2.2-0.6-2.8-1.5l-37.8-57.1c-0.6-0.9-1.7-1.5-2.8-1.5h-48.8c-1.9,0-3.4,1.5-3.4,3.4v53.5
			c0,1.9-1.5,3.4-3.4,3.4h-13.5c-1.9,0-3.4-1.5-3.4-3.4v-105.6c0-27.9,21.4-50.6,47.8-50.6h30c26.4,0,47.8,22.7,47.8,50.6
			c0,19.3-10.6,35.9-26,43.8c-1.6,0.9-2.3,2.9-1.4,4.5c0.1,0.1,0.1,0.2,0.2,0.3l36.3,54.9c1,1.5,0.6,3.6-0.9,4.7
			C1822.4,1223.4,1821.7,1223.6,1821.1,1223.6z M1794.6,1114.9c0-16.8-12.3-30.4-27.6-30.4h-30c-15.2,0-27.5,13.6-27.5,30.4v25
			c0,1.9,1.5,3.4,3.4,3.4h56C1783,1143.3,1794.6,1130.6,1794.6,1114.9L1794.6,1114.9z"/>
		<path d="M2000.3,1067.7v13.5c0,1.9-1.5,3.4-3.4,3.4h-46.1c-1.9,0-3.4,1.5-3.4,3.4v132.4c0,1.9-1.5,3.4-3.4,3.4h-13.5
			c-1.9,0-3.4-1.5-3.4-3.4v-132.4c0-1.9-1.5-3.4-3.4-3.4h-46.1c-1.9,0-3.4-1.5-3.4-3.4v-13.5c0-1.9,1.5-3.4,3.4-3.4h49.5v-0.3h20.2
			v0.3h49.5C1998.8,1064.3,2000.3,1065.8,2000.3,1067.7C2000.3,1067.7,2000.3,1067.7,2000.3,1067.7z"/>
		<path d="M2202.5,1067.6v101.8c0,29.8-24.2,54-54,54h-53.6c-15.3,0-27.7-12.4-27.8-27.7c0,0,0,0,0,0v-128.1c0-1.9,1.5-3.4,3.4-3.4
			l0,0h13.5c1.9,0,3.4,1.5,3.4,3.4v0v128.1c0,4.1,3.4,7.5,7.5,7.5l0,0h53.6c18.6,0,33.8-15.1,33.8-33.8v-101.8
			c0-1.9,1.5-3.4,3.4-3.4l0,0h13.5C2201,1064.2,2202.5,1065.7,2202.5,1067.6z"/>
		<path d="M2403.9,1114.7v105.6c0,1.9-1.5,3.4-3.4,3.4l0,0h-13.5c-1.9,0-3.4-1.5-3.4-3.4v0v-45.2H2301v45.2c0,1.9-1.5,3.4-3.4,3.4
			l0,0h-13.5c-1.9,0-3.4-1.5-3.4-3.4v0v-105.6c0-28,22.6-50.6,50.6-50.6c0,0,0,0,0,0h22C2381.3,1064.1,2403.9,1086.7,2403.9,1114.7
			C2403.9,1114.7,2403.9,1114.7,2403.9,1114.7z M2383.7,1114.7c0-16.8-13.6-30.3-30.4-30.4h-22c-16.8,0-30.3,13.6-30.4,30.4v40.1
			h82.7L2383.7,1114.7z"/>
		<path d="M2587.5,1206.7v13.5c0,1.9-1.5,3.4-3.4,3.4l0,0h-83.4c-9.3,0-16.9-7.6-16.9-16.9v-139.3c0-1.9,1.5-3.4,3.4-3.4l0,0h13.5
			c1.9,0,3.4,1.5,3.4,3.4v0v132.6c0,1.9,1.5,3.4,3.4,3.4l0,0h76.6C2586,1203.3,2587.5,1204.8,2587.5,1206.7z"/>
	</g>
</g>
</svg>
