<svg xmlns="http://www.w3.org/2000/svg" xmlns:xlink="http://www.w3.org/1999/xlink" viewBox="0 0 3029.64 1240.59"><defs><style>.cls-1{fill:url(#Degradado_sin_nombre_47);}.cls-2{fill:#304c1c;}.cls-3{fill:#fff;}.cls-4{fill:#b59b00;}.cls-5{fill:#99bf1a;}</style><linearGradient id="Degradado_sin_nombre_47" x1="122.93" y1="148.81" x2="626.1" y2="148.81" gradientUnits="userSpaceOnUse"><stop offset="0" stop-color="#292929"/><stop offset="0.11" stop-color="#f3f3f3"/><stop offset="0.24" stop-color="#a5a5a4"/><stop offset="0.38" stop-color="#fff"/><stop offset="0.45"/><stop offset="0.63" stop-color="#999"/><stop offset="0.77" stop-color="#5e5e5d"/><stop offset="0.84" stop-color="#e6e6e6"/><stop offset="0.99" stop-color="#666"/></linearGradient></defs><g id="Capa_2" data-name="Capa 2"><g id="Capa_1-2" data-name="Capa 1"><polygon class="cls-1" points="237.65 247.49 366.87 269.53 495.5 242.15 546.07 285.15 559.06 159.13 626.1 120.62 377.12 12.47 122.93 136.88 195.82 176.52 193.72 285.15 237.65 247.49"/><path d="M241,259.55,365,280.7l2.14.36,2.12-.45,123.18-26.22,46.33,39.39,16.39,13.94,2.21-21.41,12.39-120.25,62-35.62,19.55-11.23-20.68-9L381.63,2.08,376.83,0l-4.69,2.3L118,126.71l-19.7,9.64,19.27,10.48,66.85,36.35-2,101.75-.27,14.37,5.95,5.61,13-11.16ZM122.93,136.88,377.12,12.47l249,108.15-67,38.51-13,126-50.57-43L366.87,269.53l-129.22-22-43.93,37.66,2.1-108.63Z"/><polygon class="cls-2" points="373.62 121.51 0 342.09 0 1130.54 377.61 1240.59 685.18 1086.69 804.58 342.47 373.62 121.51"/><path class="cls-3" d="M30.58,357.44,351.52,169.91v107L148.26,395.66V593.57L309.8,499.18v107L148.26,700.55v230L351.52,811.79v107L30.58,1106.29Z"/><path class="cls-3" d="M374.51,156.55l132.12,66.32,77,628.26,2.14,1.1,77-549.88,108,55.54-113.4,699-156.19-80Z"/><polygon class="cls-3" points="530.38 1028.95 363.92 826.38 361.35 1088.16 415.85 1028.75 442.77 1105.08 483.14 1089.37 458.54 1024.5 530.38 1028.95"/><path class="cls-4" d="M636.65,446.91,627.09,425a12.93,12.93,0,0,0-4.58-22V123a4,4,0,1,0-7.93,0v280A12.94,12.94,0,0,0,610,425l-9.54,21.9a4,4,0,0,0,7.27,3.16l6.86-15.76v19.95a4,4,0,1,0,7.93,0v-19.9l6.87,15.76a4,4,0,0,0,3.63,2.38,3.83,3.83,0,0,0,1.58-.33A4,4,0,0,0,636.65,446.91Z"/><path class="cls-5" d="M1051.47,647.57a15.39,15.39,0,0,1-4.39,7.9q-3.51,3.51-10.75,5.71a99.54,99.54,0,0,1-18.65,3.28q-11.4,1.08-28.07,1.1-17.1,0-27.86-1.1a75.42,75.42,0,0,1-16.89-3.28q-6.14-2.2-8.34-5.71a9.25,9.25,0,0,1-.87-7.9l107.49-537a12.31,12.31,0,0,1,4.16-7.9q3.72-3.51,11-5.71a99,99,0,0,1,18.42-3.28c7.47-.74,16.74-1.1,27.86-1.1s20.26.36,27.42,1.1A79.62,79.62,0,0,1,1149.08,97q6.36,2.2,8.34,5.71a11.27,11.27,0,0,1,1.1,7.9Z"/><path class="cls-5" d="M1614.34,111.89c0,1.77-.21,4.83-.65,9.22s-1.1,9.29-2,14.7-2,11-3.5,16.89a93.85,93.85,0,0,1-5.49,16,43.23,43.23,0,0,1-7.9,12.07q-4.6,4.83-9.87,4.82H1382.27l-28.08,138.63h172q6.12,0,8.78,4.4t2.63,12.28c0,2-.23,5.2-.67,9.43s-1.1,9.06-2,14.47-2.06,10.91-3.52,16.45a90.4,90.4,0,0,1-5.49,15.37,39.86,39.86,0,0,1-7.67,11.4q-4.39,4.38-9.65,4.39H1337.08l-32.47,160.12h205.32a8.53,8.53,0,0,1,7.9,4.61q2.63,4.62,2.63,13.39,0,3.08-.44,9.65a126.64,126.64,0,0,1-2,14.7q-1.55,8.11-3.75,16.45a97.16,97.16,0,0,1-5.47,15.58,39.21,39.21,0,0,1-7.69,11.62,13.83,13.83,0,0,1-10.09,4.39H1205.9a38.54,38.54,0,0,1-12.72-2,20.33,20.33,0,0,1-9.43-6.58,25.4,25.4,0,0,1-5-11.41q-1.31-6.8.44-16.45l99.14-494.87q4-19.29,15.8-27.86a43.92,43.92,0,0,1,26.32-8.55H1603Q1614.35,95.23,1614.34,111.89Z"/><path class="cls-5" d="M2001.29,138.66c0,2.34-.22,5.71-.66,10.09s-1.09,9.22-2,14.48-2,10.6-3.3,16a98.42,98.42,0,0,1-4.83,14.91,47.1,47.1,0,0,1-6.36,11.2c-2.34,2.93-4.82,4.38-7.45,4.38q-6.17,0-15.36-5.49t-22.59-11.84a230,230,0,0,0-31.38-11.84q-18-5.49-40.79-5.49-23.7,0-40.14,6.59t-27,17.32a69,69,0,0,0-15.57,24.13,75.84,75.84,0,0,0-5.05,27q0,15.79,7.9,27.86a94.2,94.2,0,0,0,21,22.38,248.83,248.83,0,0,0,30.06,20q16.89,9.65,34.22,20.18t34.22,23a160.61,160.61,0,0,1,30,28.95,135.2,135.2,0,0,1,21.06,37.72q7.89,21.29,7.9,48.92,0,41.25-16.67,76.55a183,183,0,0,1-47.17,61.43q-30.49,26.11-73.7,41T1731.92,673a280.35,280.35,0,0,1-52.65-4.61,292.38,292.38,0,0,1-42.77-11.18,194.17,194.17,0,0,1-31.36-13.82q-12.73-7.23-18.87-13.81t-6.15-19.75a94.63,94.63,0,0,1,.88-10.53q.87-7,2.41-15.13t3.73-16.67a104.07,104.07,0,0,1,5.26-15.58,46.21,46.21,0,0,1,6.8-11.4q3.73-4.39,8.13-4.4,7.45,0,17.77,6.8t25.66,14.93A241.51,241.51,0,0,0,1687.17,573q21.06,7,50.45,7,25.88,0,45.41-6.58t32.68-18a75.91,75.91,0,0,0,20-26.54,79.94,79.94,0,0,0,6.81-33.12q0-16.25-7.9-28.52a94.27,94.27,0,0,0-20.83-22.59,217.38,217.38,0,0,0-29.4-19.52q-16.45-9.22-33.57-19.75t-33.56-22.81a155.82,155.82,0,0,1-29.38-28.75A137.15,137.15,0,0,1,1667,315.9q-7.89-21.5-7.9-50,0-39.47,15.8-72.82a170,170,0,0,1,43.87-57.25q28.08-23.91,67.13-37.29t86-13.39a252.73,252.73,0,0,1,41.68,3.3,272.32,272.32,0,0,1,36,8.33A156.86,156.86,0,0,1,1977.17,108q11.4,6.14,15.79,10.31a27.16,27.16,0,0,1,6.36,8.77A29.83,29.83,0,0,1,2001.29,138.66Z"/><path class="cls-5" d="M2487.83,619.93q2.19,15.8,2,25c-.15,6.15-2.2,10.74-6.14,13.82s-10.46,5-19.52,5.7-21.5,1.1-37.29,1.1q-16.68,0-27.21-.66t-16.23-2.42q-5.7-1.74-7.9-5.26t-2.63-9.65L2357.52,533.5h-213.2l-58.8,111.44a41.81,41.81,0,0,1-7,10.3c-2.64,2.8-6.44,4.91-11.41,6.38a99,99,0,0,1-20,3.06q-12.51.87-31.36.88a284.76,284.76,0,0,1-31.37-1.32q-11.19-1.31-14.92-6.37t-.88-14.25q2.87-9.21,11.19-24.56L2255.3,115.41a66.61,66.61,0,0,1,8.78-12.07q4.36-4.61,12.51-7t21.93-3.08q13.83-.66,36.19-.65,25.88,0,41,.65t23.46,3.08q8.34,2.4,11,7.23t3.51,13.16ZM2315.4,203.59H2315L2188.18,444.88h159.7Z"/><path class="cls-5" d="M3029.64,234.31a255.34,255.34,0,0,1-5.49,51.32,226.25,226.25,0,0,1-49.57,101.13q-19.53,23-47.83,40.79t-65.58,28.09q-37.3,10.31-87.75,10.3H2714.2l-36.41,181.63a15.34,15.34,0,0,1-4.4,7.9c-2.34,2.34-6,4.24-11,5.71a104.7,104.7,0,0,1-18.86,3.28q-11.43,1.08-28.08,1.1-16.23,0-27-1.1a75.54,75.54,0,0,1-16.89-3.28q-6.14-2.2-8.34-5.5c-1.45-2.19-1.75-4.89-.86-8.11l102.22-511.1q3.95-20.62,17.1-30.94t32.47-10.3h124.16q22.79,0,40.8,1.53a319.13,319.13,0,0,1,35.53,5,180.52,180.52,0,0,1,48,16.23,126.52,126.52,0,0,1,36.18,27.42,113.6,113.6,0,0,1,22.82,38.6Q3029.65,206.23,3029.64,234.31Zm-121.53,13.14q0-21-10.09-36.41t-31.14-21.48a93.55,93.55,0,0,0-20.62-4.17q-11.43-1.11-25.46-1.1h-50.88l-37.73,192.59h52.64q25,0,42.78-5.92a114.78,114.78,0,0,0,31.14-15.58,99.25,99.25,0,0,0,22.83-22.81,136.34,136.34,0,0,0,15.35-27.63,144.33,144.33,0,0,0,8.55-29.18A161,161,0,0,0,2908.11,247.45Z"/><path d="M936.48,817.05h62.95v21H959.56v38.82h31.69v21H959.56V943h39.87v21H936.48Z"/><path d="M1188.28,817.05h35.25c23.08,0,34.42,12.8,34.42,36.3v74.28c0,23.51-11.34,36.31-34.42,36.31h-35.25ZM1223.11,943c7.35,0,11.75-3.78,11.75-14.27V852.3c0-10.49-4.4-14.27-11.75-14.27h-11.75V943Z"/><path d="M1448.26,929.1V817.05h23.09V930.78c0,10.49,4.4,14.27,11.75,14.27s11.75-3.78,11.75-14.27V817.05h22.24V929.1c0,23.5-11.75,36.93-34.41,36.93S1448.26,952.6,1448.26,929.1Z"/><path d="M1707.62,929.94V851c0-22.66,11.75-36.09,34-36.09s34,13.43,34,36.09v15.53h-21.83v-17c0-9.65-4.61-13.64-11.54-13.64s-11.54,4-11.54,13.64v82c0,9.65,4.62,13.43,11.54,13.43s11.54-3.78,11.54-13.43V909.17h21.83v20.77c0,22.66-11.75,36.09-34,36.09S1707.62,952.6,1707.62,929.94Z"/><path d="M1982.92,817.05h31.27l23.92,146.89H2015l-4.2-29.17v.42H1984.6l-4.2,28.75H1959Zm25.18,98.2-10.28-72.6h-.42l-10.07,72.6Z"/><path d="M2223,929.94V851c0-22.66,11.75-36.09,34-36.09s34,13.43,34,36.09v15.53h-21.83v-17c0-9.65-4.61-13.64-11.54-13.64s-11.54,4-11.54,13.64v82c0,9.65,4.62,13.43,11.54,13.43s11.54-3.78,11.54-13.43V909.17H2291v20.77c0,22.66-11.75,36.09-34,36.09S2223,952.6,2223,929.94Z"/><path d="M2480.44,817.05h23.08V963.94h-23.08Z"/><path d="M2694.68,929.1V851.88c0-23.5,12.38-36.93,35-36.93s35,13.43,35,36.93V929.1c0,23.5-12.38,36.93-35,36.93S2694.68,952.6,2694.68,929.1Zm37.14-146.05H2757l-22.45,24.14h-17.42Zm9.86,147.52V850.41c0-10.49-4.61-14.48-12-14.48s-12,4-12,14.48v80.16c0,10.49,4.62,14.48,12,14.48S2741.68,941.06,2741.68,930.57Z"/><path d="M2955.92,817.05h29L3007.33,905h.42V817.05h20.57V963.94H3004.6l-27.69-107.23h-.42V963.94h-20.57Z"/><path d="M1520.56,1068.58l-56.91,145.36a15.56,15.56,0,0,1-11.75,9.71,17.58,17.58,0,0,1-2.9.27h0a16.49,16.49,0,0,1-2.91-.27,15.57,15.57,0,0,1-11.75-9.75l-56.75-145.33a3.38,3.38,0,0,1,3.15-4.61h14.45a3.38,3.38,0,0,1,3.14,2.15l50.7,129.73,50.78-129.73a3.4,3.4,0,0,1,3.15-2.15h14.48A3.41,3.41,0,0,1,1520.56,1068.58Z"/><path d="M1609.11,1067.45v152.8a3.37,3.37,0,0,1-3.38,3.37h-13.49a3.37,3.37,0,0,1-3.37-3.37v-152.8a3.37,3.37,0,0,1,3.37-3.37h13.49A3.37,3.37,0,0,1,1609.11,1067.45Z"/><path d="M1821.09,1223.63h-16.17a3.39,3.39,0,0,1-2.81-1.51l-37.75-57.07a3.36,3.36,0,0,0-2.81-1.51h-48.77a3.37,3.37,0,0,0-3.37,3.37v53.52a3.38,3.38,0,0,1-3.37,3.38h-13.5a3.38,3.38,0,0,1-3.37-3.38V1114.88c0-27.9,21.43-50.61,47.79-50.61h30c26.36,0,47.82,22.7,47.82,50.61,0,19.27-10.61,35.93-26,43.77a3.35,3.35,0,0,0-1.23,4.82l36.32,54.94A3.36,3.36,0,0,1,1821.09,1223.63Zm-26.53-108.71c0-16.77-12.34-30.41-27.57-30.41h-30c-15.19,0-27.54,13.63-27.54,30.37v25a3.37,3.37,0,0,0,3.37,3.37h56C1783,1143.29,1794.56,1130.58,1794.56,1114.92Z"/><path d="M2000.27,1067.65v13.5a3.37,3.37,0,0,1-3.37,3.37h-46.13a3.37,3.37,0,0,0-3.37,3.37v132.38a3.37,3.37,0,0,1-3.37,3.37h-13.5a3.37,3.37,0,0,1-3.37-3.37V1087.89a3.37,3.37,0,0,0-3.37-3.37h-46.14a3.37,3.37,0,0,1-3.37-3.37v-13.5a3.37,3.37,0,0,1,3.37-3.37h49.52V1064h20.25v.32h49.5A3.34,3.34,0,0,1,2000.27,1067.65Z"/><path d="M2202.48,1067.61v101.84a54,54,0,0,1-54,54h-53.6a27.74,27.74,0,0,1-27.75-27.74V1067.61a3.37,3.37,0,0,1,3.37-3.37H2084a3.37,3.37,0,0,1,3.37,3.37V1195.7a7.5,7.5,0,0,0,7.5,7.5h53.61a33.75,33.75,0,0,0,33.75-33.75V1067.6a3.37,3.37,0,0,1,3.37-3.37h13.49A3.39,3.39,0,0,1,2202.48,1067.61Z"/><path d="M2403.93,1114.72v105.57a3.37,3.37,0,0,1-3.37,3.37h-13.49a3.37,3.37,0,0,1-3.37-3.37v-45.17H2301v45.17a3.37,3.37,0,0,1-3.37,3.37H2284.1a3.37,3.37,0,0,1-3.37-3.37V1114.72a50.61,50.61,0,0,1,50.61-50.62h22A50.58,50.58,0,0,1,2403.93,1114.72Zm-20.22,0a30.41,30.41,0,0,0-30.37-30.37h-22a30.41,30.41,0,0,0-30.37,30.37v40.14h82.74Z"/><path d="M2587.47,1206.65v13.49a3.37,3.37,0,0,1-3.37,3.37h-83.38a16.91,16.91,0,0,1-16.88-16.87V1067.33a3.37,3.37,0,0,1,3.37-3.37h13.5a3.37,3.37,0,0,1,3.37,3.37v132.56a3.37,3.37,0,0,0,3.37,3.37h76.63A3.39,3.39,0,0,1,2587.47,1206.65Z"/></g></g></svg>