<?xml version="1.0" encoding="UTF-8"?>
<!DOCTYPE svg PUBLIC "-//W3C//DTD SVG 1.1//EN" "http://www.w3.org/Graphics/SVG/1.1/DTD/svg11.dtd">
<!-- Creator: CorelDRAW 2021 (64-Bit) -->
<svg xmlns="http://www.w3.org/2000/svg" xml:space="preserve" width="290.711mm" height="156.072mm" version="1.1" style="shape-rendering:geometricPrecision; text-rendering:geometricPrecision; image-rendering:optimizeQuality; fill-rule:evenodd; clip-rule:evenodd"
viewBox="0 0 29135.3 15641.67"
 xmlns:xlink="http://www.w3.org/1999/xlink"
 xmlns:xodm="http://www.corel.com/coreldraw/odm/2003">
 <defs>
  <style type="text/css">
   <![CDATA[
    .fil0 {fill:white}
   ]]>
  </style>
 </defs>
 <g id="Capa_x0020_1">
  <metadata id="CorelCorpID_0Corel-Layer"/>
  <path class="fil0" d="M319.35 322.94l0.01 -0.02c427.18,-429.15 1127.79,-430.76 1556.95,-3.58l12691.34 12666.03 12691.34 -12666.03c429.16,-427.18 1129.77,-425.57 1556.95,3.58l0.01 0.02c427.19,429.16 425.58,1129.77 -3.58,1556.96l-13422.25 13395.48c-13.17,14.74 -26.78,29.22 -40.88,43.4l-0.02 0.01c-208.68,209.64 -482.62,317.21 -758.29,322.65l-3.48 0.05c-6.59,0.1 -13.2,0.18 -19.8,0.18 -6.6,-0.01 -13.21,-0.07 -19.8,-0.18l-3.48 -0.05c-275.66,-5.44 -549.61,-113 -758.29,-322.65l-0.02 -0.01c-14.1,-14.17 -27.71,-28.65 -40.88,-43.4l-13422.25 -13395.48c-429.16,-427.19 -430.77,-1127.8 -3.58,-1556.96z"/>
 </g>
</svg>
